Coordinates
version=1
nRows=27
nColumns=12
inDegrees=yes

Units are S.I. units (second, meters, Newtons, ...)
Angles are in degrees

endheader
time	SC_y	SC_z	SC_x	AC_y	AC_z	AC_x	GH_y	GH_z	GH_yy	EL_x	PS_y
       0.0              -13.65          9.391           47.5          45.49          -16.3          11.47         -82.49          82.65          90.68          14.95          90.82
  0.004333              -13.66           9.39          47.49          45.49          -16.3          11.47         -82.49          82.65          90.69          14.95          90.82
  0.008665              -13.66          9.389          47.49          45.49          -16.3          11.47          -82.5          82.65          90.69          14.95          90.81
     0.013              -13.67          9.389          47.48          45.49          -16.3          11.47          -82.5          82.65           90.7          14.95          90.81
   0.01733              -13.68          9.388          47.48          45.49         -16.29          11.46          -82.5          82.65           90.7          14.95          90.81
   0.02166              -13.68          9.387          47.47          45.49         -16.29          11.46         -82.51          82.65          90.71          14.95          90.81
     0.026              -13.69          9.386          47.46          45.49         -16.29          11.46         -82.51          82.65          90.71          14.95          90.81
   0.03033               -13.7          9.385          47.45          45.49         -16.28          11.46         -82.52          82.65          90.72          14.95           90.8
   0.03466               -13.7          9.384          47.45          45.49         -16.28          11.46         -82.52          82.65          90.72          14.95           90.8
   0.03899              -13.71          9.383          47.44          45.49         -16.27          11.46         -82.53          82.65          90.73          14.96           90.8
   0.04333              -13.72          9.382          47.43          45.49         -16.27          11.45         -82.53          82.65          90.73          14.96           90.8
   0.04766              -13.73          9.381          47.42          45.49         -16.26          11.45         -82.54          82.65          90.74          14.96          90.79
   0.05199              -13.74           9.38          47.41          45.49         -16.26          11.45         -82.54          82.65          90.75          14.96          90.79
   0.05632              -13.76          9.378           47.4          45.49         -16.25          11.45         -82.55          82.65          90.76          14.96          90.79
   0.06066              -13.77          9.377          47.39          45.49         -16.24          11.44         -82.56          82.65          90.77          14.96          90.78
   0.06499              -13.78          9.375          47.37          45.49         -16.24          11.44         -82.57          82.65          90.78          14.97          90.78
   0.06932               -13.8          9.373          47.36          45.49         -16.23          11.44         -82.57          82.65          90.79          14.97          90.77
   0.07365              -13.81          9.371          47.34          45.49         -16.22          11.43         -82.58          82.65           90.8          14.97          90.77
   0.07799              -13.83          9.369          47.33          45.49         -16.21          11.43         -82.59          82.65          90.81          14.97          90.76
   0.08232              -13.85          9.366          47.31          45.49          -16.2          11.43          -82.6          82.65          90.83          14.98          90.76
   0.08665              -13.87          9.364          47.29          45.49         -16.19          11.42         -82.62          82.65          90.84          14.98          90.75
   0.09098              -13.89          9.361          47.27          45.49         -16.18          11.42         -82.63          82.65          90.86          14.98          90.75
   0.09532              -13.92          9.358          47.24          45.49         -16.17          11.41         -82.64          82.65          90.88          14.99          90.74
   0.09965              -13.95          9.354          47.22          45.49         -16.15           11.4         -82.66          82.65           90.9          14.99          90.73
     0.104              -13.98           9.35          47.19          45.49         -16.13           11.4         -82.68          82.65          90.92           15.0          90.72
    0.1083              -14.02          9.346          47.15          45.49         -16.12          11.39          -82.7          82.65          90.95           15.0          90.71
    0.1126              -14.06          9.341          47.11          45.49         -16.09          11.38         -82.72          82.65          90.97          15.01           90.7
